<?xml version="1.0" encoding="UTF-8" standalone="no"?>
<svg
   xmlns:dc="http://purl.org/dc/elements/1.1/"
   xmlns:cc="http://creativecommons.org/ns#"
   xmlns:rdf="http://www.w3.org/1999/02/22-rdf-syntax-ns#"
   xmlns:svg="http://www.w3.org/2000/svg"
   xmlns="http://www.w3.org/2000/svg"
   xmlns:sodipodi="http://sodipodi.sourceforge.net/DTD/sodipodi-0.dtd"
   xmlns:inkscape="http://www.inkscape.org/namespaces/inkscape"
   version="1.1"
   x="0px"
   y="0px"
   viewBox="0 0 100 125"
   style="enable-background:new 0 0 100 100;"
   xml:space="preserve"
   id="svg7697"
   sodipodi:docname="noun_kubernetes_2335047.svg"
   inkscape:version="0.92.2 5c3e80d, 2017-08-06"><metadata
     id="metadata7703"><rdf:RDF><cc:Work
         rdf:about=""><dc:format>image/svg+xml</dc:format><dc:type
           rdf:resource="http://purl.org/dc/dcmitype/StillImage" /></cc:Work></rdf:RDF></metadata><defs
     id="defs7701" /><sodipodi:namedview
     pagecolor="#ffffff"
     bordercolor="#666666"
     borderopacity="1"
     objecttolerance="10"
     gridtolerance="10"
     guidetolerance="10"
     inkscape:pageopacity="0"
     inkscape:pageshadow="2"
     inkscape:window-width="1247"
     inkscape:window-height="955"
     id="namedview7699"
     showgrid="false"
     inkscape:zoom="5.3400704"
     inkscape:cx="50"
     inkscape:cy="62.5"
     inkscape:window-x="636"
     inkscape:window-y="223"
     inkscape:window-maximized="0"
     inkscape:current-layer="svg7697" /><path
     d="M50.2294922,24.3105469c-15.2851562,0-27.7207031,12.4355469-27.7207031,27.7207031  c0,15.2861328,12.4355469,27.7216797,27.7207031,27.7216797S77.9501953,67.3173828,77.9501953,52.03125  C77.9501953,36.7460938,65.5146484,24.3105469,50.2294922,24.3105469z M75.5042725,56.7753906l-16.9473267-3.868042  c0.0300903-0.2880859,0.0465698-0.5801392,0.0465698-0.8760986c0-1.6127319-0.4660645-3.1150513-1.2592773-4.3942871  l13.5930786-10.8396606c3.1477661,4.2674561,5.0128784,9.5361938,5.0128784,15.2339478  C75.9501953,53.6524048,75.7924805,55.2366333,75.5042725,56.7753906z M50.2294922,58.4052734  c-3.5146484,0-6.3740234-2.859375-6.3740234-6.3740234c0-3.5136719,2.859375-6.3730469,6.3740234-6.3730469  s6.3740234,2.859375,6.3740234,6.3730469C56.6035156,55.5458984,53.7441406,58.4052734,50.2294922,58.4052734z   M69.6855469,35.2366333l-13.585144,10.833252c-1.288208-1.2685547-2.9841309-2.1203003-4.8709106-2.3461914V26.3358765  C58.5933228,26.6192017,65.1693115,30.0119019,69.6855469,35.2366333z M49.2294922,26.3358765v17.3878174  c-1.8867798,0.2258911-3.5827026,1.0776367-4.8709106,2.3461914l-13.585144-10.833252  C35.2896729,30.0119019,41.8656616,26.6192017,49.2294922,26.3358765z M29.5216675,36.7973022l13.5930786,10.8396606  c-0.7932129,1.2792358-1.2592773,2.7815552-1.2592773,4.3942871c0,0.2959595,0.0164795,0.5880127,0.0465698,0.8760986  l-16.9473267,3.868042c-0.288208-1.5387573-0.4459229-3.1229858-0.4459229-4.7441406  C24.5087891,46.3334961,26.3739014,41.0647583,29.5216675,36.7973022z M25.3977051,58.7250977l16.9580688-3.8704224  c0.6306763,1.7526855,1.8254395,3.2344971,3.3700562,4.2249756l-7.5450439,15.6674194  C31.968811,71.4385376,27.2684326,65.6577148,25.3977051,58.7250977z M39.9812622,75.6168823l7.5452271-15.6677856  c0.8493652,0.2908325,1.7562866,0.4561768,2.7030029,0.4561768s1.8536377-0.1653442,2.7030029-0.4561768l7.5452271,15.6677856  c-3.1422119,1.3707886-6.6068115,2.1360474-10.24823,2.1360474S43.1234741,76.9876709,39.9812622,75.6168823z   M62.2781982,74.7470703l-7.5450439-15.6674194c1.5446167-0.9904785,2.7393799-2.47229,3.3700562-4.2249756l16.9580688,3.8704224  C73.1905518,65.6577148,68.4901733,71.4385376,62.2781982,74.7470703z"
     id="path7689" /><path
     d="M90.4550781,60.1875l-5.8347168-1.3313599c0.4373169-2.2080688,0.6716309-4.4883423,0.6716309-6.822937  c0-7.8981323-2.6270142-15.1928711-7.0501709-21.0612183l4.6912842-3.7405396  c0.4316406-0.3447266,0.5024414-0.9736328,0.1582031-1.4052734c-0.34375-0.4326172-0.9741211-0.5029297-1.4052734-0.1591797  l-4.6971436,3.7452393c-6.2352905-7.364563-15.4457397-12.125061-25.7593994-12.4161377V11c0-0.5527344-0.4477539-1-1-1  s-1,0.4472656-1,1v5.9960938c-10.3138428,0.2910767-19.524353,5.0514526-25.7597046,12.4158936l-4.6968384-3.7449951  c-0.4306641-0.34375-1.0610352-0.2734375-1.4052734,0.1591797c-0.3442383,0.4316406-0.2734375,1.0605469,0.1582031,1.4052734  l4.690979,3.7402954c-4.4233398,5.8683472-7.050354,13.163208-7.050354,21.0614624  c0,2.3345947,0.234314,4.6149292,0.6716309,6.8230591L10.0039062,60.1875c-0.5380859,0.1220703-0.875,0.6582031-0.7524414,1.1972656  c0.105957,0.4638672,0.5180664,0.7773438,0.9741211,0.7773438c0.0737305,0,0.1484375-0.0078125,0.2236328-0.0253906  l5.8290405-1.3300781c2.5151978,9.7271118,9.1156006,17.8217163,17.8490601,22.3573608l-2.6019287,5.4024048  c-0.2397461,0.4970703-0.0307617,1.0947266,0.4667969,1.3349609C32.1323242,89.96875,32.2797852,90,32.4257812,90  c0.3720703,0,0.7290039-0.2080078,0.9013672-0.5664062l2.6005249-5.3994751  c4.3710327,1.9611816,9.2089233,3.0615845,14.3018188,3.0615845s9.9307251-1.1004639,14.3017578-3.0617065l2.6000977,5.3995972  C67.3037109,89.7919922,67.6606445,90,68.0327148,90c0.1455078,0,0.293457-0.03125,0.4335938-0.0986328  c0.4975586-0.2402344,0.706543-0.8378906,0.4667969-1.3349609l-2.6015015-5.4024658  c8.7332153-4.5356445,15.3336182-12.630249,17.8486938-22.3573608l5.8294678,1.3301392  c0.0751953,0.0175781,0.1499023,0.0253906,0.2236328,0.0253906c0.4560547,0,0.8681641-0.3144531,0.9741211-0.7773438  C91.3300781,60.8457031,90.9931641,60.3095703,90.4550781,60.1875z M50.2294922,85.0957031  c-18.230957,0-33.0629883-14.8320312-33.0629883-33.0625s14.8320312-33.0625,33.0629883-33.0625s33.0625,14.8320312,33.0625,33.0625  S68.4604492,85.0957031,50.2294922,85.0957031z"
     id="path7691" /></svg>