<?xml version="1.0" encoding="UTF-8" standalone="no"?>
<svg
   xmlns:dc="http://purl.org/dc/elements/1.1/"
   xmlns:cc="http://creativecommons.org/ns#"
   xmlns:rdf="http://www.w3.org/1999/02/22-rdf-syntax-ns#"
   xmlns:svg="http://www.w3.org/2000/svg"
   xmlns="http://www.w3.org/2000/svg"
   xmlns:sodipodi="http://sodipodi.sourceforge.net/DTD/sodipodi-0.dtd"
   xmlns:inkscape="http://www.inkscape.org/namespaces/inkscape"
   version="1.1"
   x="0px"
   y="0px"
   viewBox="0 0 100 125"
   style="enable-background:new 0 0 100 100;"
   xml:space="preserve"
   id="svg8181"
   sodipodi:docname="noun_users.svg"
   inkscape:version="0.92.2 5c3e80d, 2017-08-06"><metadata
     id="metadata8187"><rdf:RDF><cc:Work
         rdf:about=""><dc:format>image/svg+xml</dc:format><dc:type
           rdf:resource="http://purl.org/dc/dcmitype/StillImage" /></cc:Work></rdf:RDF></metadata><defs
     id="defs8185" /><sodipodi:namedview
     pagecolor="#ffffff"
     bordercolor="#666666"
     borderopacity="1"
     objecttolerance="10"
     gridtolerance="10"
     guidetolerance="10"
     inkscape:pageopacity="0"
     inkscape:pageshadow="2"
     inkscape:window-width="640"
     inkscape:window-height="480"
     id="namedview8183"
     showgrid="false"
     inkscape:zoom="1.888"
     inkscape:cx="50"
     inkscape:cy="62.5"
     inkscape:window-x="0"
     inkscape:window-y="0"
     inkscape:window-maximized="0"
     inkscape:current-layer="svg8181" /><path
     d="M25.4082031,40.7954102c8.496582,0,15.4086914-6.9121094,15.4086914-15.4082031  c0-8.496582-6.9121094-15.4086914-15.4086914-15.4086914C16.9121094,9.9785156,10,16.890625,10,25.387207  C10,33.8833008,16.9121094,40.7954102,25.4082031,40.7954102z M17.3222656,36.0575562  c0.1083984-3.4842529,2.3727417-6.4807739,5.7275391-7.4994507c0.3857422-0.1171875,0.6630859-0.4545898,0.7041016-0.8554688  s-0.1625977-0.7871094-0.5161133-0.9799805c-1.5883789-0.8647461-2.574707-2.5234375-2.574707-4.3291016  c0-2.7163086,2.2094727-4.9262695,4.9257812-4.9262695s4.9257812,2.2099609,4.9257812,4.9262695  c0,1.8598633-1.0336914,3.5410156-2.6972656,4.3881836c-0.3598633,0.1831055-0.5742188,0.5639648-0.543457,0.9667969  c0.0302734,0.4023438,0.2998047,0.746582,0.6826172,0.8735352c3.2421875,1.0737305,5.4309082,4.0432739,5.538269,7.4352417  c-2.2511597,1.7102051-5.0477905,2.7380981-8.0866089,2.7380981C22.3696899,38.7954102,19.5733032,37.7676392,17.3222656,36.0575562  z M25.4082031,11.9785156c7.3935547,0,13.4086914,6.0151367,13.4086914,13.4086914  c0,3.4698486-1.3360596,6.6255493-3.5064087,9.0087891c-0.5668335-2.9366455-2.3900757-5.4797363-5.0126343-6.925293  c1.3979492-1.2900391,2.2167969-3.1123047,2.2167969-5.0771484c0-3.8193359-3.1069336-6.9262695-6.9257812-6.9262695  s-6.9257812,3.1069336-6.9257812,6.9262695c0,1.8896484,0.7680664,3.6640625,2.0810547,4.949707  c-2.7506104,1.4180298-4.6607056,4.0125732-5.2399292,7.050354C13.3352051,32.0106201,12,28.855896,12,25.387207  C12,17.9936523,18.0151367,11.9785156,25.4082031,11.9785156z"
     id="path8161" /><path
     d="M74.612793,9.9785156c-8.4960938,0-15.4082031,6.9121094-15.4082031,15.4086914  c0,8.4960938,6.9121094,15.4082031,15.4082031,15.4082031c8.496582,0,15.4086914-6.9121094,15.4086914-15.4082031  C90.0214844,16.890625,83.109375,9.9785156,74.612793,9.9785156z M66.5268555,36.0576782  c0.1083374-3.484436,2.3726807-6.480896,5.7275391-7.4995728c0.3857422-0.1171875,0.6630859-0.4545898,0.7041016-0.8554688  s-0.1625977-0.7871094-0.5161133-0.9799805c-1.5883789-0.8647461-2.574707-2.5234375-2.574707-4.3291016  c0-2.7163086,2.2094727-4.9262695,4.9257812-4.9262695s4.9257812,2.2099609,4.9257812,4.9262695  c0,1.8598633-1.0336914,3.5410156-2.6972656,4.3881836c-0.3598633,0.1831055-0.5742188,0.5639648-0.543457,0.9667969  c0.0302734,0.4023438,0.2998047,0.746582,0.6826172,0.8735352c3.2421875,1.0737305,5.4309082,4.0432739,5.538269,7.4352417  c-2.2511597,1.7102051-5.0477905,2.7380981-8.0866089,2.7380981C71.5742188,38.7954102,68.7778931,37.7677002,66.5268555,36.0576782  z M84.5150757,34.3959961c-0.5668335-2.9366455-2.3900757-5.4797363-5.0126343-6.925293  c1.3979492-1.2900391,2.2167969-3.1123047,2.2167969-5.0771484c0-3.8193359-3.1069336-6.9262695-6.9257812-6.9262695  s-6.9257812,3.1069336-6.9257812,6.9262695c0,1.8896484,0.7680664,3.6640625,2.0810547,4.949707  c-2.7506714,1.4180298-4.6607666,4.0125732-5.2399902,7.0504761c-2.1690674-2.3829956-3.5041504-5.5377808-3.5041504-9.0065308  c0-7.3935547,6.0146484-13.4086914,13.4082031-13.4086914s13.4086914,6.0151367,13.4086914,13.4086914  C88.0214844,28.8570557,86.6854248,32.0127563,84.5150757,34.3959961z"
     id="path8163" /><path
     d="M25.4082031,90.0639648c8.496582,0,15.4086914-6.9121094,15.4086914-15.4082031  s-6.9121094-15.4082031-15.4086914-15.4082031C16.9121094,59.2475586,10,66.159668,10,74.6557617  S16.9121094,90.0639648,25.4082031,90.0639648z M17.3222656,85.3259888  c0.1084595-3.4837646,2.3727417-6.4801636,5.7275391-7.4993286c0.3857422-0.1171875,0.6635742-0.4545898,0.7041016-0.8554688  c0.0410156-0.4008789-0.1625977-0.7871094-0.5166016-0.9799805c-1.5878906-0.8642578-2.5742188-2.5229492-2.5742188-4.3291016  c0-2.7163086,2.2094727-4.9257812,4.9257812-4.9257812s4.9257812,2.2094727,4.9257812,4.9257812  c0,1.8598633-1.0336914,3.5410156-2.6972656,4.3881836c-0.3598633,0.1831055-0.5742188,0.5639648-0.543457,0.9667969  c0.0302734,0.4023438,0.2998047,0.746582,0.6826172,0.8735352c3.2421265,1.0737305,5.4307251,4.043335,5.538208,7.4351196  c-2.2511597,1.7102661-5.0477295,2.7382202-8.0865479,2.7382202C22.3696899,88.0639648,19.5733032,87.0361328,17.3222656,85.3259888  z M25.4082031,61.2475586c7.3935547,0,13.4086914,6.0151367,13.4086914,13.4082031  c0,3.4696045-1.3361206,6.6253662-3.5064697,9.008667c-0.5668945-2.9366455-2.3900757-5.4796753-5.0125732-6.9251709  c1.3979492-1.2900391,2.2167969-3.1123047,2.2167969-5.0771484c0-3.8188477-3.1069336-6.9257812-6.9257812-6.9257812  s-6.9257812,3.1069336-6.9257812,6.9257812c0,1.8896484,0.7680664,3.6645508,2.0805664,4.949707  c-2.7501221,1.418396-4.6600342,4.0128784-5.2393799,7.0502319C13.3352051,81.2789917,12,78.1242065,12,74.6557617  C12,67.2626953,18.0151367,61.2475586,25.4082031,61.2475586z"
     id="path8165" /><path
     d="M74.612793,59.2475586c-8.4960938,0-15.4082031,6.9121094-15.4082031,15.4082031  s6.9121094,15.4082031,15.4082031,15.4082031c8.496582,0,15.4086914-6.9121094,15.4086914-15.4082031  S83.109375,59.2475586,74.612793,59.2475586z M66.5268555,85.3261108c0.1083984-3.4837646,2.3727417-6.4802856,5.7275391-7.4994507  c0.3857422-0.1171875,0.6635742-0.4545898,0.7041016-0.8554688c0.0410156-0.4008789-0.1625977-0.7871094-0.5166016-0.9799805  c-1.5878906-0.8642578-2.5742188-2.5229492-2.5742188-4.3291016c0-2.7163086,2.2094727-4.9257812,4.9257812-4.9257812  s4.9257812,2.2094727,4.9257812,4.9257812c0,1.8598633-1.0336914,3.5410156-2.6972656,4.3881836  c-0.3598633,0.1831055-0.5742188,0.5639648-0.543457,0.9667969c0.0302734,0.4023438,0.2998047,0.746582,0.6826172,0.8735352  c3.2421265,1.0737305,5.4307251,4.043335,5.538208,7.4351196c-2.2511597,1.7102661-5.0477295,2.7382202-8.0865479,2.7382202  C71.5742188,88.0639648,68.777832,87.0361938,66.5268555,85.3261108z M84.5150146,83.6644287  c-0.5668945-2.9366455-2.3900757-5.4796753-5.0125732-6.9251709c1.3979492-1.2900391,2.2167969-3.1123047,2.2167969-5.0771484  c0-3.8188477-3.1069336-6.9257812-6.9257812-6.9257812s-6.9257812,3.1069336-6.9257812,6.9257812  c0,1.8896484,0.7680664,3.6645508,2.0805664,4.949707c-2.7501831,1.418396-4.6601562,4.0130005-5.2394409,7.050415  c-2.1690674-2.3830566-3.5042114-5.5379028-3.5042114-9.0064697c0-7.3930664,6.0146484-13.4082031,13.4082031-13.4082031  s13.4086914,6.0151367,13.4086914,13.4082031C88.0214844,78.1253662,86.6853638,81.2811279,84.5150146,83.6644287z"
     id="path8167" /><path
     d="M41.9609375,13.3129883c5.2275391-1.7421875,10.8930664-1.7421875,16.1206055,0  c0.1049805,0.0351562,0.2119141,0.0517578,0.3164062,0.0517578c0.4189453,0,0.809082-0.2651367,0.9487305-0.684082  c0.1748047-0.5244141-0.1083984-1.090332-0.6323242-1.2651367c-5.6376953-1.8789062-11.7485352-1.8789062-17.3862305,0  c-0.5239258,0.1748047-0.8071289,0.7407227-0.6323242,1.2651367C40.8706055,13.2041016,41.4355469,13.4892578,41.9609375,13.3129883  z"
     id="path8169" /><path
     d="M12.3642578,59.355957c0.1044922,0,0.2114258-0.0166016,0.3164062-0.0517578  c0.5239258-0.1748047,0.8071289-0.7407227,0.6323242-1.2651367C12.4418945,55.425293,12,52.7128906,12,49.9785156  s0.4418945-5.4462891,1.3129883-8.0600586c0.1748047-0.5244141-0.1083984-1.090332-0.6323242-1.2651367  c-0.5258789-0.175293-1.0908203,0.1088867-1.2651367,0.6323242C10.4760742,44.1044922,10,47.0288086,10,49.9785156  s0.4760742,5.8745117,1.4155273,8.6933594C11.5551758,59.0908203,11.9453125,59.355957,12.3642578,59.355957z"
     id="path8171" /><path
     d="M58.0390625,86.6870117c-5.2275391,1.7421875-10.8930664,1.7421875-16.1206055,0  c-0.5268555-0.1757812-1.090332,0.1088867-1.2651367,0.6323242c-0.1748047,0.5244141,0.1083984,1.090332,0.6323242,1.2651367  C44.1044922,89.5239258,47.0288086,90,49.9785156,90s5.8745117-0.4760742,8.6933594-1.4155273  c0.5239258-0.1748047,0.8071289-0.7407227,0.6323242-1.2651367C59.1298828,86.7958984,58.5649414,86.5112305,58.0390625,86.6870117z  "
     id="path8173" /><path
     d="M87.3193359,59.3466797c0.1049805,0.0351562,0.2119141,0.0517578,0.3164062,0.0517578  c0.4189453,0,0.809082-0.2651367,0.9487305-0.684082C89.5239258,55.8955078,90,52.9711914,90,50.0214844  s-0.4760742-5.8745117-1.4155273-8.6933594c-0.1743164-0.5239258-0.7387695-0.8081055-1.2651367-0.6323242  c-0.5239258,0.1748047-0.8071289,0.7407227-0.6323242,1.2651367C87.5581055,44.574707,88,47.2871094,88,50.0214844  s-0.4418945,5.4462891-1.3129883,8.0600586C86.512207,58.605957,86.7954102,59.171875,87.3193359,59.3466797z"
     id="path8175" /></svg>