<?xml version="1.0" encoding="UTF-8" standalone="no"?>
<svg
   xmlns:dc="http://purl.org/dc/elements/1.1/"
   xmlns:cc="http://creativecommons.org/ns#"
   xmlns:rdf="http://www.w3.org/1999/02/22-rdf-syntax-ns#"
   xmlns:svg="http://www.w3.org/2000/svg"
   xmlns="http://www.w3.org/2000/svg"
   xmlns:sodipodi="http://sodipodi.sourceforge.net/DTD/sodipodi-0.dtd"
   xmlns:inkscape="http://www.inkscape.org/namespaces/inkscape"
   version="1.1"
   x="0px"
   y="0px"
   viewBox="0 0 100 125"
   style="enable-background:new 0 0 100 100;"
   xml:space="preserve"
   id="svg7775"
   sodipodi:docname="noun_exchanges.svg"
   inkscape:version="0.92.2 5c3e80d, 2017-08-06"><metadata
     id="metadata7781"><rdf:RDF><cc:Work
         rdf:about=""><dc:format>image/svg+xml</dc:format><dc:type
           rdf:resource="http://purl.org/dc/dcmitype/StillImage" /></cc:Work></rdf:RDF></metadata><defs
     id="defs7779" /><sodipodi:namedview
     pagecolor="#ffffff"
     bordercolor="#666666"
     borderopacity="1"
     objecttolerance="10"
     gridtolerance="10"
     guidetolerance="10"
     inkscape:pageopacity="0"
     inkscape:pageshadow="2"
     inkscape:window-width="640"
     inkscape:window-height="480"
     id="namedview7777"
     showgrid="false"
     inkscape:zoom="1.888"
     inkscape:cx="50"
     inkscape:cy="62.5"
     inkscape:window-x="0"
     inkscape:window-y="0"
     inkscape:window-maximized="0"
     inkscape:current-layer="svg7775" /><path
     d="M80.0302734,61.1025391h-9.8603516v-7.5849609c0-0.4042969-0.2441406-0.7695312-0.6171875-0.9238281  c-0.3740234-0.15625-0.8037109-0.0703125-1.0898438,0.2167969L53.984375,67.2900391  c-0.390625,0.390625-0.390625,1.0234375,0,1.4140625l14.4785156,14.4785156  c0.1914062,0.1914062,0.4472656,0.2929688,0.7070312,0.2929688c0.1289062,0,0.2587891-0.0244141,0.3828125-0.0761719  c0.3740234-0.1542969,0.6171875-0.5195312,0.6171875-0.9238281v-7.6337891h9.8603516c0.5527344,0,1-0.4472656,1-1V62.1025391  C81.0302734,61.5498047,80.5830078,61.1025391,80.0302734,61.1025391z M79.0302734,72.8417969h-9.8603516  c-0.5527344,0-1,0.4472656-1,1v6.2197266L56.1054688,67.9970703l12.0644531-12.0654297v6.1708984c0,0.5527344,0.4472656,1,1,1  h9.8603516V72.8417969z"
     id="path7763" /><path
     d="M67.9228516,45.9199219c-12.1728516,0-22.0761719,9.9033203-22.0761719,22.0771484  c0,12.1728516,9.9033203,22.0761719,22.0761719,22.0761719C80.0966797,90.0732422,90,80.1699219,90,67.9970703  C90,55.8232422,80.0966797,45.9199219,67.9228516,45.9199219z M67.9228516,88.0732422  c-11.0703125,0-20.0761719-9.0058594-20.0761719-20.0761719s9.0058594-20.0771484,20.0761719-20.0771484  S88,56.9267578,88,67.9970703S78.9931641,88.0732422,67.9228516,88.0732422z"
     id="path7765" /><path
     d="M19.9697266,38.8955078h9.8603516v7.6337891c0,0.4042969,0.2431641,0.7695312,0.6171875,0.9238281  c0.1240234,0.0517578,0.2539062,0.0761719,0.3828125,0.0761719c0.2597656,0,0.515625-0.1015625,0.7070312-0.2929688  L46.015625,32.7578125c0.390625-0.390625,0.390625-1.0234375,0-1.4140625L31.5371094,16.8652344  c-0.2861328-0.2861328-0.7158203-0.3720703-1.0898438-0.2167969c-0.3740234,0.1542969-0.6171875,0.5195312-0.6171875,0.9238281  v7.5849609h-9.8603516c-0.5527344,0-1,0.4472656-1,1v11.7382812C18.9697266,38.4482422,19.4169922,38.8955078,19.9697266,38.8955078  z M20.9697266,27.1572266h9.8603516c0.5527344,0,1-0.4472656,1-1v-6.1708984l12.0644531,12.0644531L31.8300781,44.1152344  v-6.2197266c0-0.5527344-0.4472656-1-1-1h-9.8603516V27.1572266z"
     id="path7767" /><path
     d="M10,32.0507812c0,12.1738281,9.9033203,22.0771484,22.0771484,22.0771484  c12.1728516,0,22.0761719-9.9033203,22.0761719-22.0771484c0-12.1728516-9.9033203-22.0761719-22.0761719-22.0761719  C19.9033203,9.9746094,10,19.8779297,10,32.0507812z M32.0771484,11.9746094  c11.0703125,0,20.0761719,9.0058594,20.0761719,20.0761719s-9.0058594,20.0771484-20.0761719,20.0771484  S12,43.1210938,12,32.0507812S21.0068359,11.9746094,32.0771484,11.9746094z"
     id="path7769" /></svg>