<?xml version="1.0" encoding="UTF-8" standalone="no"?>
<svg
   xmlns:dc="http://purl.org/dc/elements/1.1/"
   xmlns:cc="http://creativecommons.org/ns#"
   xmlns:rdf="http://www.w3.org/1999/02/22-rdf-syntax-ns#"
   xmlns:svg="http://www.w3.org/2000/svg"
   xmlns="http://www.w3.org/2000/svg"
   xmlns:sodipodi="http://sodipodi.sourceforge.net/DTD/sodipodi-0.dtd"
   xmlns:inkscape="http://www.inkscape.org/namespaces/inkscape"
   version="1.1"
   x="0px"
   y="0px"
   viewBox="0 0 100 125"
   style="enable-background:new 0 0 100 100;"
   xml:space="preserve"
   id="svg7859"
   sodipodi:docname="noun_recycle.svg"
   inkscape:version="0.92.2 5c3e80d, 2017-08-06"><metadata
     id="metadata7865"><rdf:RDF><cc:Work
         rdf:about=""><dc:format>image/svg+xml</dc:format><dc:type
           rdf:resource="http://purl.org/dc/dcmitype/StillImage" /></cc:Work></rdf:RDF></metadata><defs
     id="defs7863" /><sodipodi:namedview
     pagecolor="#ffffff"
     bordercolor="#666666"
     borderopacity="1"
     objecttolerance="10"
     gridtolerance="10"
     guidetolerance="10"
     inkscape:pageopacity="0"
     inkscape:pageshadow="2"
     inkscape:window-width="640"
     inkscape:window-height="480"
     id="namedview7861"
     showgrid="false"
     inkscape:zoom="1.888"
     inkscape:cx="50"
     inkscape:cy="62.5"
     inkscape:window-x="0"
     inkscape:window-y="0"
     inkscape:window-maximized="0"
     inkscape:current-layer="svg7859" /><path
     d="M59.2675781,35.4912109c0.1523438,0.3779297,0.5195312,0.6259766,0.9277344,0.6259766h25.0810547  c0.5527344,0,1-0.4472656,1-1V11c0-0.4013672-0.2392578-0.7626953-0.6083984-0.9199219s-0.7949219-0.0791016-1.0849609,0.1992188  l-8.0625,7.7529297C69.2724609,12.7744141,60.6611328,10,51.5595703,10C28.6435547,10,10,27.9443359,10,50  c0,2.7988281,0.3085938,5.6123047,0.9160156,8.3603516c0.1015625,0.4580078,0.5078125,0.7841797,0.9765625,0.7841797h9.5566406  c0.3144531,0,0.6113281-0.1484375,0.7998047-0.4003906c0.1894531-0.2519531,0.2480469-0.578125,0.1601562-0.8798828  c-0.75-2.5664062-1.1298828-5.2119141-1.1298828-7.8642578c0-16.0332031,13.5839844-29.0771484,30.2802734-29.0771484  c6.0517578,0,11.8476562,1.6972656,16.8388672,4.9189453l-8.8964844,8.5546875  C59.2080078,34.6787109,59.1152344,35.1123047,59.2675781,35.4912109z M70.6777344,26.4248047  c0.2148438-0.2070312,0.3261719-0.4990234,0.3037109-0.796875s-0.1777344-0.5703125-0.421875-0.7421875  c-5.5517578-3.9013672-12.1210938-5.9628906-19-5.9628906c-17.7998047,0-32.2802734,13.9414062-32.2802734,31.0771484  c0,2.4023438,0.2910156,4.7998047,0.8662109,7.1445312h-7.4414062C12.2363281,54.7880859,12,52.3886719,12,50  c0-20.953125,17.7460938-38,39.5595703-38c8.9521484,0,17.4042969,2.8134766,24.4414062,8.1367188  c0.3925781,0.296875,0.9423828,0.265625,1.296875-0.0771484l6.9785156-6.7109375v20.7685547H62.6777344L70.6777344,26.4248047z"
     id="path7851" /><path
     d="M88.9042969,40.8896484C88.7958984,40.4414062,88.3945312,40.125,87.9326172,40.125h-9.5976562  c-0.3193359,0-0.6191406,0.1523438-0.8076172,0.4101562c-0.1884766,0.2587891-0.2421875,0.5908203-0.1445312,0.8955078  C78.2705078,44.2001953,78.7207031,47.0830078,78.7207031,50c0,16.0332031-13.5839844,29.0771484-30.2802734,29.0771484  c-6.0449219,0-11.8388672-1.6982422-16.8339844-4.9238281l8.8916016-8.5498047  c0.2939453-0.2822266,0.3867188-0.7158203,0.234375-1.0947266c-0.1523438-0.3779297-0.5195312-0.6259766-0.9277344-0.6259766  H14.7236328c-0.5527344,0-1,0.4472656-1,1V89c0,0.4013672,0.2392578,0.7626953,0.6083984,0.9199219  C14.4580078,89.9736328,14.5917969,90,14.7236328,90c0.2529297,0,0.5029297-0.0966797,0.6933594-0.2792969l8.0693359-7.7587891  C30.7333984,87.2236328,39.3417969,90,48.4404297,90C71.3564453,90,90,72.0556641,90,50  C90,46.9580078,89.6318359,43.8925781,88.9042969,40.8896484z M48.4404297,88  c-8.9482422,0-17.3974609-2.8154297-24.4345703-8.1416016c-0.1796875-0.1367188-0.3916016-0.203125-0.6035156-0.203125  c-0.2509766,0-0.5009766,0.09375-0.6933594,0.2792969l-6.9853516,6.7167969V65.8828125h21.5986328l-7.9951172,7.6875  c-0.2148438,0.2070312-0.3261719,0.4990234-0.3037109,0.796875s0.1777344,0.5703125,0.421875,0.7421875  c5.5556641,3.9042969,12.1240234,5.9677734,18.9951172,5.9677734c17.7998047,0,32.2802734-13.9414062,32.2802734-31.0771484  c0-2.6689453-0.3515625-5.3115234-1.0478516-7.875h7.4648438C87.7099609,44.7285156,88,47.3740234,88,50  C88,70.953125,70.2539062,88,48.4404297,88z"
     id="path7853" /></svg>