<?xml version="1.0" encoding="UTF-8" standalone="no"?>
<svg
   xmlns:dc="http://purl.org/dc/elements/1.1/"
   xmlns:cc="http://creativecommons.org/ns#"
   xmlns:rdf="http://www.w3.org/1999/02/22-rdf-syntax-ns#"
   xmlns:svg="http://www.w3.org/2000/svg"
   xmlns="http://www.w3.org/2000/svg"
   xmlns:sodipodi="http://sodipodi.sourceforge.net/DTD/sodipodi-0.dtd"
   xmlns:inkscape="http://www.inkscape.org/namespaces/inkscape"
   version="1.1"
   x="0px"
   y="0px"
   viewBox="0 0 100 125"
   style="enable-background:new 0 0 100 100;"
   xml:space="preserve"
   id="svg8087"
   sodipodi:docname="noun_science experiment.svg"
   inkscape:version="0.92.2 5c3e80d, 2017-08-06"><metadata
     id="metadata8093"><rdf:RDF><cc:Work
         rdf:about=""><dc:format>image/svg+xml</dc:format><dc:type
           rdf:resource="http://purl.org/dc/dcmitype/StillImage" /></cc:Work></rdf:RDF></metadata><defs
     id="defs8091" /><sodipodi:namedview
     pagecolor="#ffffff"
     bordercolor="#666666"
     borderopacity="1"
     objecttolerance="10"
     gridtolerance="10"
     guidetolerance="10"
     inkscape:pageopacity="0"
     inkscape:pageshadow="2"
     inkscape:window-width="640"
     inkscape:window-height="480"
     id="namedview8089"
     showgrid="false"
     inkscape:zoom="1.888"
     inkscape:cx="50"
     inkscape:cy="62.5"
     inkscape:window-x="0"
     inkscape:window-y="0"
     inkscape:window-maximized="0"
     inkscape:current-layer="svg8087" /><path
     d="M25.211,31.58v53.446c0,2.743,2.231,4.975,4.975,4.975h39.551c2.743,0,4.976-2.231,4.976-4.975V31.604  c0.614-0.149,1.178-0.48,1.609-0.957c0.602-0.665,0.896-1.561,0.807-2.459c-0.161-1.601-1.606-2.855-3.289-2.855h-47.88  c-0.897,0-1.757,0.382-2.358,1.047s-0.896,1.561-0.806,2.458C22.927,30.154,23.925,31.236,25.211,31.58z M69.736,88H30.186  c-1.641,0-2.975-1.334-2.975-2.975V44.781h45.501v40.244C72.712,86.666,71.377,88,69.736,88z M25.083,27.723  c0.228-0.251,0.538-0.389,0.876-0.389h47.88c0.669,0,1.239,0.464,1.299,1.055c0.034,0.341-0.072,0.667-0.299,0.917  s-0.538,0.389-0.876,0.389h-0.251c-0.553,0-1,0.448-1,1v12.087H27.211V30.694c0-0.552-0.447-1-1-1h-0.128  c-0.669,0-1.239-0.463-1.298-1.055C24.751,28.298,24.856,27.973,25.083,27.723z"
     id="path8055" /><path
     d="M37.514,72.132h-4.192c-0.553,0-1,0.448-1,1s0.447,1,1,1h4.192c0.553,0,1-0.448,1-1S38.066,72.132,37.514,72.132z"
     id="path8057" /><path
     d="M37.514,64.794h-4.192c-0.553,0-1,0.448-1,1s0.447,1,1,1h4.192c0.553,0,1-0.448,1-1S38.066,64.794,37.514,64.794z"
     id="path8059" /><path
     d="M37.514,57.457h-4.192c-0.553,0-1,0.448-1,1s0.447,1,1,1h4.192c0.553,0,1-0.448,1-1S38.066,57.457,37.514,57.457z"
     id="path8061" /><path
     d="M37.514,50.119h-4.192c-0.553,0-1,0.448-1,1s0.447,1,1,1h4.192c0.553,0,1-0.448,1-1S38.066,50.119,37.514,50.119z"
     id="path8063" /><path
     d="M33.321,37.317h4.192c0.553,0,1-0.448,1-1s-0.447-1-1-1h-4.192c-0.553,0-1,0.448-1,1S32.769,37.317,33.321,37.317z"
     id="path8065" /><path
     d="M61.956,59.857c-3.324,0-6.029,2.705-6.029,6.029s2.705,6.029,6.029,6.029s6.029-2.705,6.029-6.029  S65.28,59.857,61.956,59.857z M61.956,69.916c-2.222,0-4.029-1.808-4.029-4.029s1.808-4.029,4.029-4.029s4.029,1.808,4.029,4.029  S64.178,69.916,61.956,69.916z"
     id="path8067" /><path
     d="M49.961,70.124c-3.562,0-6.459,2.897-6.459,6.459s2.897,6.459,6.459,6.459s6.459-2.897,6.459-6.459  S53.522,70.124,49.961,70.124z M49.961,81.042c-2.459,0-4.459-2-4.459-4.459s2-4.459,4.459-4.459s4.459,2,4.459,4.459  S52.42,81.042,49.961,81.042z"
     id="path8069" /><path
     d="M73.175,10c-3.562,0-6.459,2.897-6.459,6.459s2.897,6.459,6.459,6.459s6.459-2.897,6.459-6.459S76.736,10,73.175,10z   M73.175,20.918c-2.459,0-4.459-2-4.459-4.459s2-4.459,4.459-4.459s4.459,2,4.459,4.459S75.634,20.918,73.175,20.918z"
     id="path8071" /><path
     d="M29.703,22.918c3.562,0,6.459-2.897,6.459-6.459S33.265,10,29.703,10s-6.459,2.897-6.459,6.459S26.142,22.918,29.703,22.918  z M29.703,12c2.459,0,4.459,2,4.459,4.459s-2,4.459-4.459,4.459s-4.459-2-4.459-4.459S27.244,12,29.703,12z"
     id="path8073" /><path
     d="M48.712,58.857c2.883,0,5.228-2.345,5.228-5.227c0-2.882-2.345-5.227-5.228-5.227c-2.882,0-5.227,2.345-5.227,5.227  C43.485,56.513,45.83,58.857,48.712,58.857z M48.712,50.404c1.779,0,3.228,1.448,3.228,3.227s-1.448,3.227-3.228,3.227  s-3.227-1.447-3.227-3.227S46.933,50.404,48.712,50.404z"
     id="path8075" /><path
     d="M52.939,22.246c2.882,0,5.227-2.345,5.227-5.227s-2.345-5.227-5.227-5.227c-2.883,0-5.228,2.345-5.228,5.227  S50.057,22.246,52.939,22.246z M52.939,13.792c1.779,0,3.227,1.448,3.227,3.227s-1.447,3.227-3.227,3.227s-3.228-1.448-3.228-3.227  S51.16,13.792,52.939,13.792z"
     id="path8077" /><path
     d="M15.201,35.647c-2.882,0-5.227,2.345-5.227,5.227c0,2.882,2.345,5.227,5.227,5.227c2.883,0,5.228-2.345,5.228-5.227  C20.429,37.992,18.084,35.647,15.201,35.647z M15.201,44.101c-1.779,0-3.227-1.447-3.227-3.227s1.447-3.227,3.227-3.227  s3.228,1.448,3.228,3.227S16.98,44.101,15.201,44.101z"
     id="path8079" /><path
     d="M84.747,44.849c2.883,0,5.228-2.345,5.228-5.227s-2.345-5.227-5.228-5.227c-2.882,0-5.227,2.345-5.227,5.227  S81.865,44.849,84.747,44.849z M84.747,36.395c1.779,0,3.228,1.448,3.228,3.227s-1.448,3.227-3.228,3.227s-3.227-1.448-3.227-3.227  S82.968,36.395,84.747,36.395z"
     id="path8081" /></svg>