<?xml version="1.0" encoding="UTF-8" standalone="no"?>
<svg
   xmlns:dc="http://purl.org/dc/elements/1.1/"
   xmlns:cc="http://creativecommons.org/ns#"
   xmlns:rdf="http://www.w3.org/1999/02/22-rdf-syntax-ns#"
   xmlns:svg="http://www.w3.org/2000/svg"
   xmlns="http://www.w3.org/2000/svg"
   xmlns:sodipodi="http://sodipodi.sourceforge.net/DTD/sodipodi-0.dtd"
   xmlns:inkscape="http://www.inkscape.org/namespaces/inkscape"
   version="1.1"
   x="0px"
   y="0px"
   viewBox="0 0 100 125"
   style="enable-background:new 0 0 100 100;"
   xml:space="preserve"
   id="svg7969"
   sodipodi:docname="noun_rocket.svg"
   inkscape:version="0.92.2 5c3e80d, 2017-08-06"><metadata
     id="metadata7975"><rdf:RDF><cc:Work
         rdf:about=""><dc:format>image/svg+xml</dc:format><dc:type
           rdf:resource="http://purl.org/dc/dcmitype/StillImage" /></cc:Work></rdf:RDF></metadata><defs
     id="defs7973" /><sodipodi:namedview
     pagecolor="#ffffff"
     bordercolor="#666666"
     borderopacity="1"
     objecttolerance="10"
     gridtolerance="10"
     guidetolerance="10"
     inkscape:pageopacity="0"
     inkscape:pageshadow="2"
     inkscape:window-width="640"
     inkscape:window-height="480"
     id="namedview7971"
     showgrid="false"
     inkscape:zoom="1.888"
     inkscape:cx="50"
     inkscape:cy="62.5"
     inkscape:window-x="0"
     inkscape:window-y="0"
     inkscape:window-maximized="0"
     inkscape:current-layer="svg7969" /><path
     d="M89.8222656,33.5595703l-5.4980469-5.4951172c-1.6601562-1.6591797-3.9541016-2.5332031-6.3032227-2.4189453  l-28.9086914,1.5131226l-7.7671509-7.7622681c-0.0008545-0.0008545-0.0010376-0.0019531-0.0018921-0.0028076  s-0.0020142-0.0010376-0.0028687-0.0018921l-5.4146118-5.4111938c-1.5429688-1.5419922-3.5839844-2.5498047-5.7470703-2.8378906  l-8.5366211-1.1347656c-3.1049805-0.4101562-6.1660156,0.6210938-8.3852539,2.8398438  c-2.2163086,2.2167969-3.25,5.2695312-2.8364258,8.375l1.1357422,8.53125  c0.2880859,2.1630859,1.2963867,4.203125,2.8393555,5.7441406l5.4164429,5.4130249l0.000061,0.000061l0.000061,0.000061  l7.8226318,7.817627l-1.5077515,28.7789917c-0.1225586,2.34375,0.7592773,4.640625,2.4199219,6.2998047l5.4985352,5.4951172  c0.1953125,0.1953125,0.4511719,0.2929688,0.7070312,0.2929688s0.5117188-0.0976562,0.7070312-0.2929688l16.3872681-16.3771973  l1.015564,1.0148926c0.1953125,0.1953125,0.4511719,0.2929688,0.7070312,0.2929688s0.5117188-0.0976562,0.7070312-0.2929688  l1.5335693-1.5325928l3.9952393,3.9925537c0.1953125,0.1953125,0.4511719,0.2929688,0.7070312,0.2929688  s0.5117188-0.0976562,0.7070312-0.2929688l15.6845703-15.6748047c0.1875-0.1875,0.2929688-0.4414062,0.2929688-0.7070312  s-0.1054688-0.5195312-0.2929688-0.7070312l-3.994751-3.9920654l1.4835205-1.4825439  c0.1875-0.1875,0.2929688-0.4414062,0.2929688-0.7070312s-0.1054688-0.5195312-0.2929688-0.7070312l-1.0151367-1.0144653  l16.4448242-16.4347534c0.1875-0.1875,0.2929688-0.4414062,0.2929688-0.7070312S90.0097656,33.7470703,89.8222656,33.5595703z   M72.2709961,53.1298828l-8.6436768,8.6380005L31.9920044,30.1524658l8.6434937-8.6380005L72.2709961,53.1298828z   M13.5385742,29.4902344l-1.1357422-8.53125c-0.3305664-2.4833984,0.4960938-4.9248047,2.2685547-6.6972656  c1.7749023-1.7744141,4.21875-2.6005859,6.7070312-2.2714844L29.9150391,13.125  c1.7299805,0.2304688,3.362793,1.0361328,4.5966797,2.2695312l4.7092896,4.7062988L20.519104,38.7908936l-4.710022-4.7069092  C14.5756836,32.8505859,13.769043,31.2197266,13.5385742,29.4902344z M34.7524414,87.1816406l-4.7915039-4.7880859  c-1.2602539-1.2597656-1.9296875-3.0019531-1.8369141-4.78125l1.4136353-26.9817505L50.432251,71.5119019L34.7524414,87.1816406z   M53.5693359,71.8193359L21.9336548,40.2045288l8.6438599-8.6384277l31.6353149,31.6154175L53.5693359,71.8193359z   M74.7822266,60.0185547L60.512207,74.2792969l-3.2877808-3.2850952l7.1090698-7.1045532  c0.0004272-0.0004272,0.0010376-0.0005493,0.0014648-0.0009766s0.0005493-0.0010376,0.0009766-0.0014648l7.1586304-7.1541138  L74.7822266,60.0185547z M71.9629517,49.994751L51.017334,29.062439L78.125,27.6435547  c1.7910156-0.1015625,3.5253906,0.5761719,4.7851562,1.8349609l4.7905273,4.7880859L71.9629517,49.994751z"
     id="path7941" /><path
     d="M21.2265625,32.5332031c0.1958008,0.1962891,0.4521484,0.2949219,0.7089844,0.2949219  c0.2553711,0,0.5102539-0.0966797,0.7055664-0.2910156c0.3911133-0.3896484,0.3925781-1.0234375,0.003418-1.4140625  l-2.2578125-2.2685547c-0.6992188-0.703125-1.1416016-1.6337891-1.2446289-2.6201172L18.65625,21.6083984  c-0.0581055-0.5488281-0.5439453-0.9580078-1.0991211-0.8896484c-0.5493164,0.0576172-0.9477539,0.5498047-0.8901367,1.0986328  l0.4858398,4.6259766c0.1508789,1.4384766,0.7958984,2.7958984,1.815918,3.8212891L21.2265625,32.5332031z"
     id="path7943" /><path
     d="M89.1152344,19.1005859h-1.8432617v-1.8417969c0-0.5527344-0.4477539-1-1-1s-1,0.4472656-1,1v1.8417969h-1.8432617  c-0.5522461,0-1,0.4472656-1,1s0.4477539,1,1,1h1.8432617v1.8417969c0,0.5527344,0.4477539,1,1,1s1-0.4472656,1-1v-1.8417969  h1.8432617c0.5522461,0,1-0.4472656,1-1S89.6674805,19.1005859,89.1152344,19.1005859z"
     id="path7945" /><path
     d="M72.7285156,11.7685547c-0.5522461,0-1,0.4472656-1,1v2.6660156h-2.668457c-0.5522461,0-1,0.4472656-1,1s0.4477539,1,1,1  h2.668457v2.6660156c0,0.5527344,0.4477539,1,1,1s1-0.4472656,1-1v-2.6660156h2.668457c0.5522461,0,1-0.4472656,1-1  s-0.4477539-1-1-1h-2.668457v-2.6660156C73.7285156,12.2158203,73.2807617,11.7685547,72.7285156,11.7685547z"
     id="path7947" /><path
     d="M16.8510742,74.2060547c-0.5522461,0-1,0.4472656-1,1v2.6660156h-2.668457c-0.5522461,0-1,0.4472656-1,1s0.4477539,1,1,1  h2.668457v2.6669922c0,0.5527344,0.4477539,1,1,1s1-0.4472656,1-1v-2.6669922h2.668457c0.5522461,0,1-0.4472656,1-1  s-0.4477539-1-1-1h-2.668457v-2.6660156C17.8510742,74.6533203,17.4033203,74.2060547,16.8510742,74.2060547z"
     id="path7949" /><path
     d="M83.4287109,50.1660156c-0.5522461,0-1,0.4472656-1,1v1.9501953h-1.9516602c-0.5522461,0-1,0.4472656-1,1s0.4477539,1,1,1  h1.9516602v1.9492188c0,0.5527344,0.4477539,1,1,1s1-0.4472656,1-1v-1.9492188h1.9511719c0.5522461,0,1-0.4472656,1-1  s-0.4477539-1-1-1h-1.9511719v-1.9501953C84.4287109,50.6132812,83.980957,50.1660156,83.4287109,50.1660156z"
     id="path7951" /><path
     d="M62.6474609,82.0556641l-1.5327148-0.8378906c-1.3608398-0.7431641-2.4741211-1.8554688-3.21875-3.2167969  L57.0576172,76.46875c-0.3515625-0.640625-1.4033203-0.640625-1.7548828,0l-0.8378906,1.5322266  c-0.7451172,1.3613281-1.8583984,2.4736328-3.2192383,3.2167969l-1.5332031,0.8378906  c-0.3208008,0.1757812-0.5205078,0.5126953-0.5205078,0.8779297s0.199707,0.7021484,0.5205078,0.8779297l1.5332031,0.8378906  c1.3608398,0.7431641,2.4741211,1.8554688,3.21875,3.2167969l0.8383789,1.5322266  c0.1757812,0.3203125,0.512207,0.5195312,0.8774414,0.5195312s0.7016602-0.1992188,0.8774414-0.5195312l0.8378906-1.5322266  c0.7451172-1.3613281,1.8583984-2.4736328,3.2192383-3.2167969l1.5327148-0.8378906  c0.3208008-0.1757812,0.5205078-0.5126953,0.5205078-0.8779297S62.9682617,82.2314453,62.6474609,82.0556641z   M56.1801758,86.8349609c-0.9150391-1.640625-2.2626953-2.9873047-3.9038086-3.9013672  c1.6411133-0.9140625,2.9882812-2.2607422,3.9038086-3.9013672c0.9155273,1.6416016,2.2626953,2.9882812,3.9038086,3.9013672  C58.4428711,83.8476562,57.0957031,85.1933594,56.1801758,86.8349609z"
     id="path7953" /><path
     d="M23.8120117,56.3388672l-1.5634766-0.8535156c-1.3930664-0.7617188-2.53125-1.8994141-3.2919922-3.2910156  l-0.8549805-1.5625c-0.1757812-0.3203125-0.5117188-0.5195312-0.8774414-0.5195312  c-0.3652344,0-0.7016602,0.1992188-0.8769531,0.5195312l-0.855957,1.5634766  c-0.7607422,1.390625-1.8989258,2.5283203-3.2915039,3.2890625l-1.5639648,0.8544922  c-0.3208008,0.1757812-0.5205078,0.5126953-0.5205078,0.8779297s0.199707,0.7021484,0.5205078,0.8779297l1.5634766,0.8535156  c1.3930664,0.7617188,2.53125,1.8994141,3.2924805,3.2910156l0.8554688,1.5625  c0.175293,0.3203125,0.5117188,0.5195312,0.8769531,0.5195312c0.3657227,0,0.7016602-0.1992188,0.8774414-0.5195312  l0.8549805-1.5634766c0.7607422-1.390625,1.8989258-2.5283203,3.2919922-3.2890625l1.5634766-0.8544922  c0.3208008-0.1757812,0.5205078-0.5126953,0.5205078-0.8779297S24.1328125,56.5146484,23.8120117,56.3388672z   M17.2241211,61.2382812c-0.9370117-1.6943359-2.3266602-3.0830078-4.0234375-4.0214844  c1.6967773-0.9384766,3.0864258-2.3271484,4.0229492-4.0214844c0.9370117,1.6943359,2.3266602,3.0839844,4.0239258,4.0214844  C19.5507812,58.1542969,18.1606445,59.5439453,17.2241211,61.2382812z"
     id="path7955" /><path
     d="M49.824707,19.5019531c1.5415039,0.8417969,2.8017578,2.1015625,3.644043,3.6416016l0.9370117,1.7119141  C54.581543,25.1757812,54.9179688,25.375,55.2832031,25.375c0.3657227,0,0.7016602-0.1992188,0.8774414-0.5205078  l0.9365234-1.7109375c0.8422852-1.5400391,2.1025391-2.7998047,3.644043-3.6425781l1.7128906-0.9365234  c0.3208008-0.1748047,0.5205078-0.5117188,0.5205078-0.8769531s-0.199707-0.7021484-0.5205078-0.8769531l-1.7128906-0.9375  c-1.5415039-0.8417969-2.8017578-2.1015625-3.644043-3.640625l-0.9365234-1.7119141  C55.9848633,10.1992188,55.6489258,10,55.2832031,10c-0.3652344,0-0.7016602,0.1992188-0.8774414,0.5195312L53.46875,12.2314453  c-0.8422852,1.5400391-2.1025391,2.7998047-3.644043,3.6425781l-1.7128906,0.9365234  c-0.3208008,0.1748047-0.5205078,0.5117188-0.5205078,0.8769531s0.199707,0.7021484,0.5205078,0.8769531L49.824707,19.5019531z   M50.7836914,17.6289062c1.8779297-1.0273438,3.4130859-2.5615234,4.4394531-4.4365234l0.0600586-0.109375l0.059082,0.109375  c1.0268555,1.875,2.5620117,3.4091797,4.4399414,4.4355469L59.8901367,17.6875l-0.1079102,0.0585938  c-1.8779297,1.0273438-3.4130859,2.5615234-4.4399414,4.4375l-0.059082,0.1083984l-0.0595703-0.109375  c-1.0268555-1.875-2.5620117-3.4091797-4.4399414-4.4355469L50.6757812,17.6875L50.7836914,17.6289062z"
     id="path7957" /><path
     d="M70.8378906,87.1416016c-0.390625-0.390625-1.0234375-0.3896484-1.4140625-0.0009766  c-0.390625,0.390625-0.3911133,1.0234375-0.0009766,1.4150391c0.871582,0.8730469,2.03125,1.3535156,3.2641602,1.3535156  s2.3925781-0.4804688,3.2641602-1.3535156c1.7993164-1.8007812,1.7993164-4.7314453,0.0004883-6.53125l-6.7568359-6.7734375  c-0.3896484-0.3916016-1.0234375-0.3916016-1.4140625-0.0019531c-0.3911133,0.3896484-0.3920898,1.0234375-0.0019531,1.4140625  L74.5361328,83.4375c1.0209961,1.0214844,1.0209961,2.6826172,0,3.7041016  C73.5478516,88.1318359,71.8261719,88.1318359,70.8378906,87.1416016z"
     id="path7959" /><path
     d="M88.7939453,70.2109375c-0.390625-0.390625-1.0239258-0.390625-1.4145508,0  c-0.390625,0.3896484-0.390625,1.0234375-0.0004883,1.4140625c0.7573242,0.7578125,0.7573242,1.9902344,0,2.7480469  c-0.7324219,0.734375-2.0097656,0.7333984-2.7421875,0.0009766l-7.3901367-7.4033203  c-0.3901367-0.3925781-1.0229492-0.390625-1.4140625-0.0019531c-0.390625,0.390625-0.3916016,1.0234375-0.0009766,1.4140625  l7.3901367,7.4042969c0.7441406,0.7451172,1.7333984,1.1552734,2.7861328,1.1552734s2.0419922-0.4101562,2.7861328-1.1552734  C90.3295898,74.25,90.3295898,71.7480469,88.7939453,70.2109375z"
     id="path7961" /><path
     d="M89.5048828,87.578125L73.1015625,71.1748047c-0.390625-0.390625-1.0234375-0.390625-1.4140625,0  s-0.390625,1.0234375,0,1.4140625l16.4033203,16.4033203c0.1953125,0.1953125,0.4511719,0.2929688,0.7070312,0.2929688  s0.5117188-0.0976562,0.7070312-0.2929688C89.8955078,88.6015625,89.8955078,87.96875,89.5048828,87.578125z"
     id="path7963" /></svg>