<?xml version="1.0" standalone="no"?>
<!DOCTYPE svg PUBLIC "-//W3C//DTD SVG 20010904//EN"
 "http://www.w3.org/TR/2001/REC-SVG-20010904/DTD/svg10.dtd">
<svg version="1.0" xmlns="http://www.w3.org/2000/svg"
 width="460.000000pt" height="460.000000pt" viewBox="0 0 460.000000 460.000000"
 preserveAspectRatio="xMidYMid meet">
<metadata>
Created by potrace 1.11, written by Peter Selinger 2001-2013
</metadata>
<g transform="translate(0.000000,460.000000) scale(0.100000,-0.100000)"
fill="#000000" stroke="none">
<path d="M1718 4325 c-108 -27 -246 -111 -317 -191 -67 -77 -141 -249 -141
-330 0 -48 -6 -52 -63 -37 -33 9 -88 13 -153 11 -93 -3 -107 -6 -176 -41 -92
-45 -169 -112 -197 -171 -50 -101 -49 -234 2 -385 l22 -67 -75 23 c-93 30
-210 34 -292 10 -89 -27 -205 -110 -254 -183 -87 -130 -98 -317 -31 -515 26
-76 35 -121 35 -166 0 -145 131 -302 253 -303 20 0 42 -7 49 -15 39 -47 206
-136 459 -246 l44 -19 -65 -68 c-222 -231 -350 -550 -335 -837 9 -163 53 -288
126 -358 20 -19 67 -51 104 -71 84 -44 138 -47 213 -12 29 13 164 118 323 251
l272 228 38 -21 c71 -40 136 -24 199 48 28 32 73 140 79 189 5 48 10 55 65
103 54 47 62 51 86 41 15 -6 461 -208 992 -450 531 -243 988 -448 1015 -458
75 -26 197 -31 273 -11 80 20 189 84 242 143 61 65 82 121 88 229 11 223 -73
445 -222 582 -137 125 -324 212 -455 212 l-39 0 5 103 c14 259 -90 523 -309
784 -38 46 -84 95 -102 109 l-32 26 87 87 c178 178 273 375 273 561 0 75 -4
93 -32 152 -37 77 -80 118 -179 168 -59 30 -77 35 -138 34 -83 0 -132 -21
-222 -93 l-60 -49 -6 49 c-13 110 -67 181 -183 239 -63 32 -76 35 -157 35
l-88 0 -59 95 c-32 52 -96 139 -142 193 -45 54 -100 122 -121 152 -80 115
-210 199 -352 231 -102 22 -277 27 -347 9z m-1167 -1705 c91 -25 189 -163 189
-264 0 -61 -18 -100 -47 -104 -72 -10 -182 68 -228 163 -31 62 -37 134 -16
183 15 35 36 40 102 22z m2489 -701 c140 -63 209 -240 146 -374 -12 -27 -30
-56 -39 -63 -21 -18 -78 -26 -130 -18 -42 6 -45 9 -52 43 -14 77 -80 170 -152
214 -33 20 -34 24 -28 63 10 56 28 96 58 129 23 24 33 27 89 27 42 0 78 -7
108 -21z m-1733 -414 c36 -14 44 -23 49 -52 15 -81 -23 -196 -84 -256 -42 -41
-105 -71 -132 -62 -27 9 -45 62 -45 135 0 87 47 187 108 231 22 16 46 28 51
25 6 -2 30 -11 53 -21z m2834 -548 c67 -44 96 -146 65 -222 -24 -58 -43 -45
-38 25 6 81 -30 158 -91 195 l-42 25 36 0 c21 0 50 -10 70 -23z"/>
</g>
</svg>
